<svg width="16" height="16" viewBox="0 0 16 16" fill="none" xmlns="http://www.w3.org/2000/svg">
<path fill-rule="evenodd" clip-rule="evenodd" d="M5.96752 1.02586C4.6101 1.42232 3.39787 2.20628 2.47949 3.28161C3.03509 3.53629 3.60607 3.75598 4.1891 3.93937C4.34969 3.46376 4.55059 3.00273 4.7896 2.56129C5.09611 2.0012 5.48586 1.45748 5.96752 1.02827M5.96752 14.9761C5.48635 14.5469 5.09611 14.0031 4.7896 13.443C4.55059 13.0016 4.34969 12.5406 4.1891 12.065C3.60613 12.2476 3.03514 12.4664 2.47949 12.7203C3.3982 13.7948 4.61039 14.5779 5.96752 14.9737V14.9761ZM13.5672 12.6664C12.9978 12.4223 12.4148 12.2115 11.821 12.0351C11.6582 12.5218 11.4537 12.9935 11.2099 13.445C10.9034 14.005 10.5132 14.5488 10.032 14.9775C11.4137 14.5728 12.6441 13.767 13.5672 12.6621V12.6664ZM10.032 1.02586C10.5132 1.45507 10.9034 1.9988 11.2099 2.55888C11.4537 3.01039 11.6582 3.48209 11.821 3.96872C12.4148 3.79231 12.9978 3.58153 13.5672 3.33742C12.6434 2.23417 11.4131 1.42973 10.032 1.02586ZM7.61891 4.5264V0.981595C6.64261 1.17984 5.90834 2.09455 5.45363 2.92217C5.24198 3.3137 5.06333 3.72219 4.91952 4.14339C5.80308 4.36697 6.70803 4.49537 7.61891 4.5264ZM4.91952 11.8561C5.06379 12.2774 5.24293 12.6859 5.45507 13.0773C5.90737 13.905 6.64164 14.8197 7.62035 15.0179V11.4731C6.70899 11.504 5.80355 11.6324 4.91952 11.8561ZM8.37916 11.4712V15.0174C9.35546 14.8192 10.0897 13.9045 10.5444 13.0769C10.76 12.6786 10.9416 12.2628 11.0872 11.834C10.1998 11.6199 9.29259 11.4985 8.38013 11.4717L8.37916 11.4712ZM11.0853 4.16456C10.9396 3.73575 10.7581 3.31998 10.5425 2.92169C10.0897 2.09407 9.35546 1.17936 8.37724 0.981114V4.52737C9.29035 4.5007 10.1982 4.37927 11.0862 4.16504L11.0853 4.16456ZM2.00505 12.0991C2.64164 11.8002 3.29769 11.5446 3.96872 11.3341C3.71021 10.3399 3.57081 9.31862 3.55347 8.29159H0.743414C0.796103 9.65442 1.23351 10.9745 2.00505 12.0991ZM7.61891 8.29159H4.31469C4.33163 9.24858 4.46083 10.2003 4.69963 11.1271C5.65481 10.8826 6.6339 10.7434 7.61939 10.7119L7.61891 8.29159ZM11.3057 11.1055C11.5409 10.1854 11.6681 9.2411 11.6848 8.29159H8.38013V10.71C9.36653 10.7382 10.3472 10.8708 11.3057 11.1055ZM15.2561 8.29159H12.4456C12.4291 9.30723 12.2933 10.3174 12.0409 11.3013C12.7215 11.5041 13.3886 11.7497 14.0383 12.0366C14.7828 10.9249 15.2044 9.62855 15.2561 8.29159ZM12.0409 4.69626C12.2799 5.6231 12.4149 6.57365 12.4436 7.53037H15.2489C15.1683 6.25442 14.7506 5.0227 14.0383 3.96102C13.3886 4.24793 12.7215 4.49349 12.0409 4.69626ZM8.38397 7.53037H11.6834C11.6559 6.64053 11.5305 5.75642 11.3095 4.89402C10.351 5.12877 9.37038 5.2612 8.38397 5.28906V7.53037ZM4.70299 4.87237C4.47857 5.7416 4.35141 6.63306 4.32383 7.53037H7.61891V5.28666C6.63345 5.25552 5.65437 5.11659 4.69915 4.87237H4.70299ZM2.00842 3.9004C1.27168 4.97543 0.8394 6.2297 0.757368 7.53037H3.56309C3.5919 6.56302 3.72958 5.60199 3.97353 4.66546C3.30086 4.45515 2.6432 4.19954 2.00505 3.9004H2.00842ZM7.99904 5.79071e-08C9.58135 -0.000190281 11.1282 0.468852 12.4439 1.34781C13.7596 2.22677 14.7852 3.47616 15.3908 4.93798C15.9964 6.3998 16.155 8.00838 15.8464 9.56031C15.5377 11.1122 14.7759 12.5378 13.657 13.6567C12.5382 14.7756 11.1127 15.5376 9.56078 15.8463C8.00887 16.155 6.40028 15.9965 4.93842 15.391C3.47656 14.7854 2.22711 13.76 1.34808 12.4443C0.46904 11.1286 -9.5145e-05 9.58183 1.44737e-08 7.99952C0.000127599 5.87804 0.842907 3.84347 2.34298 2.34332C3.84304 0.843156 5.87755 0.000255255 7.99904 5.79071e-08Z" fill="white"/>
</svg>
