<svg width="40" height="40" viewBox="0 0 40 40" fill="none" xmlns="http://www.w3.org/2000/svg">
<path d="M23.6991 14.0029C23.5805 14.0002 23.4626 14.0211 23.3523 14.0646C23.2419 14.108 23.1414 14.1731 23.0565 14.256C22.9717 14.3389 22.9043 14.4379 22.8583 14.5472C22.8122 14.6565 22.7885 14.7739 22.7885 14.8925C22.7885 15.011 22.8122 15.1284 22.8583 15.2377C22.9043 15.347 22.9717 15.446 23.0565 15.5289C23.1414 15.6118 23.2419 15.6769 23.3523 15.7203C23.4626 15.7638 23.5805 15.7847 23.6991 15.782H29.6383C30.7354 15.782 31.7875 16.2178 32.5632 16.9935C33.3389 17.7692 33.7747 18.8213 33.7747 19.9184C33.7747 21.0154 33.3389 22.0675 32.5632 22.8433C31.7875 23.619 30.7354 24.0548 29.6383 24.0548H21.871C20.7744 24.0531 19.7231 23.6167 18.9476 22.8413C18.1722 22.0658 17.7358 21.0146 17.7341 19.9179C17.7287 19.6856 17.6326 19.4646 17.4664 19.3022C17.3002 19.1398 17.077 19.0489 16.8446 19.0489C16.6122 19.0489 16.3891 19.1398 16.2228 19.3022C16.0566 19.4646 15.9605 19.6856 15.9551 19.9179C15.9571 21.4861 16.581 22.9896 17.6899 24.0985C18.7989 25.2074 20.3023 25.8313 21.8705 25.8334H29.6383C31.198 25.8192 32.6889 25.1898 33.7868 24.0819C34.8847 22.974 35.5007 21.4774 35.5007 19.9177C35.5007 18.3579 34.8847 16.8613 33.7868 15.7534C32.6889 14.6456 31.198 14.0161 29.6383 14.002L23.6991 14.0029Z" fill="white"/>
<path d="M6.72615 15.7398C5.90132 16.5671 5.33996 17.6201 5.11285 18.7661C4.88574 19.912 5.00306 21.0996 5.45001 22.1789C5.89696 23.2583 6.65352 24.1811 7.62428 24.8311C8.59504 25.481 9.73652 25.8289 10.9048 25.8309H15.929C16.1648 25.8309 16.391 25.7372 16.5578 25.5705C16.7246 25.4037 16.8183 25.1775 16.8183 24.9416C16.8183 24.7058 16.7246 24.4796 16.5578 24.3128C16.391 24.146 16.1648 24.0524 15.929 24.0524H10.9028C9.80577 24.0524 8.75366 23.6166 7.97794 22.8408C7.20221 22.0651 6.76641 21.013 6.76641 19.9159C6.76641 18.8189 7.20221 17.7668 7.97794 16.9911C8.75366 16.2153 9.80577 15.7795 10.9028 15.7795H18.2136C19.3094 15.7834 20.3592 16.2203 21.1341 16.9951C21.9089 17.7699 22.346 18.8197 22.35 19.9155C22.3472 20.034 22.3682 20.1519 22.4116 20.2623C22.4551 20.3726 22.5202 20.4732 22.603 20.558C22.6859 20.6428 22.7849 20.7102 22.8942 20.7563C23.0035 20.8023 23.1209 20.826 23.2395 20.826C23.3581 20.826 23.4755 20.8023 23.5848 20.7563C23.6941 20.7102 23.7931 20.6428 23.876 20.558C23.9589 20.4732 24.0239 20.3726 24.0674 20.2623C24.1108 20.1519 24.1318 20.034 24.129 19.9155C24.1267 18.3473 23.5027 16.844 22.3939 15.7351C21.285 14.6263 19.7818 14.0023 18.2136 14H10.9023C10.1258 13.9996 9.3569 14.1532 8.64008 14.4518C7.92326 14.7504 7.27275 15.1882 6.72615 15.7398Z" fill="white"/>
</svg>
