<svg width="134" height="29" viewBox="0 0 134 29" fill="none" xmlns="http://www.w3.org/2000/svg">
<path d="M13.1729 21.5127C15.2789 22.8451 17.7149 23.5832 20.2164 23.6469C22.7179 23.7105 25.1893 23.0972 27.3622 21.8736C25.998 24.1494 24.0286 26.0142 21.667 27.2661C19.3054 28.5181 16.6416 29.1095 13.9637 28.9764C11.2858 28.8433 8.69579 27.9908 6.47385 26.5111C4.25191 25.0314 2.48263 22.9809 1.35741 20.5813C0.232197 18.1817 -0.206121 15.5244 0.0898793 12.897C0.385879 10.2695 1.40494 7.7718 3.0368 5.67415C4.66865 3.5765 6.85121 1.95873 9.34832 0.995838C11.8454 0.0329495 14.562 -0.238401 17.2043 0.211156C18.1358 0.407545 19.0177 0.786539 19.7977 1.3256C20.5777 1.86466 21.2399 2.55278 21.7448 3.34912C22.3603 4.36646 22.8147 5.4705 23.0922 6.62306V6.64921C23.4624 8.35208 23.4479 10.1144 23.0497 11.8112C22.4185 14.5255 20.8643 17.0411 18.8433 18.4218C19.4582 17.7934 19.9175 17.0333 20.1851 16.2009C20.4528 15.3685 20.5216 14.4864 20.3863 13.6235C20.2509 12.7605 19.915 11.9401 19.4048 11.2263C18.8947 10.5126 18.224 9.92476 17.4453 9.50885C16.6665 9.09294 15.8008 8.8602 14.9157 8.82879C14.0307 8.79738 13.1502 8.96815 12.3432 9.32778C11.5361 9.68741 10.8244 10.2261 10.2634 10.9019C9.70253 11.5777 9.30768 12.3721 9.10974 13.2232C8.90123 14.07 8.87952 14.9511 9.04609 15.8068C9.31568 16.9803 9.81938 18.0891 10.5279 19.0687C11.2364 20.0483 12.1355 20.8791 13.1729 21.5127Z" fill="white"/>
<path d="M11.9156 19.4678C12.8342 19.9398 13.8114 20.2915 14.8225 20.5138C16.5381 20.9011 18.3189 20.9146 20.0404 20.5533C21.7618 20.192 23.3826 19.4646 24.7895 18.4218C26.8944 16.9715 28.4815 14.9034 29.3247 12.512C29.7279 16.1311 28.9587 18.176 28.9587 18.176C27.5325 19.849 25.6624 21.098 23.5575 21.7833C21.4527 22.4686 19.196 22.5633 17.0397 22.0566C17.0397 22.0566 13.9419 21.4185 11.9156 19.4678Z" fill="white"/>
<path d="M15.5333 20.1005C21.1666 20.5451 26.4604 16.518 27.7653 11.4397C27.9895 10.527 28.1263 9.59544 28.1737 8.65743C27.1955 6.48229 25.6976 4.57301 23.8082 3.09277C24.6023 4.6376 25.0444 6.33484 25.1036 8.06575C25.1629 9.79665 24.8378 11.5194 24.1512 13.1135C23.4645 14.7076 22.4329 16.1345 21.1285 17.2944C19.8241 18.4543 18.2784 19.3192 16.5995 19.8286C16.2517 19.9345 15.8973 20.0183 15.5386 20.0796L15.5333 20.1005Z" fill="white"/>
<path d="M53.6933 5.94312V16.3978H51.2692V5.94312H53.6933Z" fill="white"/>
<path d="M133.997 5.93799V23.474H131.567V5.93799H133.997Z" fill="white"/>
<path d="M70.8212 5.93799V9.28515H67.2778V11.3301H70.8212V16.3979H73.2506V5.93799H70.8212Z" fill="white"/>
<path d="M67.1558 15.425L63.1722 8.7568H66.5352V6.7119H62.8645V5.33643H60.4351V6.7119H56.7857V8.7568H60.1222L56.1385 15.425H58.7589L61.6445 10.5977L64.5301 15.425H67.1558Z" fill="white"/>
<path d="M130.559 18.3746L124.369 6.51831H124.348H121.675H121.653L115.463 18.3746H118.152L123.011 9.07052L127.87 18.3746H130.559Z" fill="white"/>
<path d="M97.8101 16.926V18.9709H111.495V23.4268H113.925L113.92 16.9313L97.8101 16.926Z" fill="white"/>
<path d="M40.6656 17.2869H38.2362V23.0398H53.81V20.9949H40.6656V17.2869Z" fill="white"/>
<path d="M73.1499 20.9949H59.7668V17.2869H57.3374V23.0398H73.1499V20.9949Z" fill="white"/>
<path d="M107.692 6.05298V8.10311H111.495V11.4346H107.692V13.4795H111.495V15.9585H113.925V6.05298H107.692Z" fill="white"/>
<path d="M90.5801 6.05821L90.5854 15.8591H93.0148V8.10311H94.7228V6.05298L90.5801 6.05821Z" fill="white"/>
<path d="M76.1998 8.28612H85.5462V12.8309H81.6474V9.86556H79.218V12.8309H75.7701V14.8706L87.9756 14.8654V6.24121H76.1998V8.28612Z" fill="white"/>
<path d="M41.8485 5.97461C40.8463 5.97358 39.8664 6.26562 39.0327 6.8138C38.1989 7.36198 37.5488 8.14167 37.1646 9.05422C36.7804 9.96677 36.6793 10.9712 36.8742 11.9404C37.069 12.9096 37.551 13.8 38.2593 14.4991C38.9675 15.1981 39.8702 15.6743 40.853 15.8674C41.8357 16.0606 42.8546 15.962 43.7805 15.5841C44.7065 15.2062 45.4979 14.5661 46.0548 13.7446C46.6117 12.9231 46.9089 11.9573 46.9089 10.9692C46.9089 9.64545 46.3759 8.37586 45.427 7.43934C44.4782 6.50282 43.1911 5.976 41.8485 5.97461ZM41.8485 13.7568C41.2893 13.7568 40.7427 13.5933 40.2777 13.287C39.8128 12.9807 39.4504 12.5453 39.2364 12.0359C39.0225 11.5266 38.9664 10.9661 39.0755 10.4254C39.1846 9.88464 39.4539 9.38794 39.8493 8.99809C40.2447 8.60824 40.7485 8.34277 41.2969 8.23521C41.8453 8.12765 42.4138 8.18284 42.9304 8.39382C43.447 8.60481 43.8886 8.9621 44.1993 9.42052C44.5099 9.87893 44.6757 10.4179 44.6757 10.9692C44.6757 11.3353 44.6026 11.6977 44.4605 12.0359C44.3184 12.3741 44.1102 12.6815 43.8477 12.9403C43.5851 13.1991 43.2734 13.4045 42.9304 13.5446C42.5874 13.6847 42.2197 13.7568 41.8485 13.7568Z" fill="white"/>
<path d="M101.576 5.72339C100.574 5.72339 99.5949 6.01632 98.7618 6.56513C97.9288 7.11394 97.2795 7.894 96.8961 8.80664C96.5127 9.71928 96.4124 10.7235 96.6078 11.6924C96.8033 12.6612 97.2858 13.5512 97.9942 14.2497C98.7027 14.9482 99.6053 15.4239 100.588 15.6166C101.571 15.8093 102.589 15.7104 103.515 15.3324C104.44 14.9543 105.232 14.3142 105.788 13.4928C106.345 12.6715 106.642 11.7058 106.642 10.718C106.642 9.39332 106.108 8.12293 105.158 7.18626C104.208 6.2496 102.92 5.72339 101.576 5.72339ZM101.576 13.5055C101.017 13.5055 100.47 13.3421 100.005 13.0358C99.5405 12.7295 99.1782 12.2941 98.9642 11.7847C98.7502 11.2754 98.6942 10.7149 98.8033 10.1741C98.9124 9.63342 99.1817 9.13673 99.5771 8.74688C99.9725 8.35704 100.476 8.09154 101.025 7.98399C101.573 7.87643 102.142 7.93163 102.658 8.14262C103.175 8.3536 103.616 8.71088 103.927 9.16929C104.238 9.6277 104.403 10.1666 104.403 10.718C104.403 11.4573 104.106 12.1663 103.575 12.6891C103.045 13.2118 102.326 13.5055 101.576 13.5055Z" fill="white"/>
<path d="M88.8403 13.6101C87.8384 13.6101 86.8589 13.903 86.0259 14.4518C85.1928 15.0006 84.5436 15.7807 84.1601 16.6933C83.7767 17.606 83.6764 18.6102 83.8719 19.5791C84.0673 20.5479 84.5498 21.4379 85.2583 22.1364C85.9667 22.8349 86.8693 23.3106 87.852 23.5033C88.8346 23.696 89.8532 23.5971 90.7788 23.2191C91.7044 22.8411 92.4956 22.2009 93.0523 21.3795C93.6089 20.5582 93.906 19.5925 93.906 18.6047C93.906 17.28 93.3723 16.0097 92.4223 15.073C91.4723 14.1363 90.1838 13.6101 88.8403 13.6101ZM88.8403 21.3922C88.2813 21.3912 87.7352 21.2268 87.271 20.9199C86.8067 20.613 86.4452 20.1773 86.232 19.6678C86.0188 19.1584 85.9636 18.598 86.0733 18.0577C86.183 17.5173 86.4526 17.0211 86.8483 16.6317C87.2439 16.2424 87.7476 15.9775 88.2959 15.8703C88.8442 15.7632 89.4124 15.8187 89.9287 16.0298C90.445 16.241 90.8863 16.5983 91.1967 17.0566C91.5071 17.5149 91.6728 18.0536 91.6728 18.6047C91.6728 18.9712 91.5995 19.3341 91.4571 19.6727C91.3147 20.0112 91.1059 20.3187 90.8428 20.5776C90.5798 20.8366 90.2675 21.0418 89.9238 21.1816C89.5802 21.3213 89.212 21.3929 88.8403 21.3922Z" fill="white"/>
</svg>
