<svg width="40" height="41" viewBox="0 0 40 41" fill="none" xmlns="http://www.w3.org/2000/svg">
<path d="M34.6875 8V24.25C34.6875 24.8302 34.457 25.3866 34.0468 25.7968C33.6366 26.207 33.0802 26.4375 32.5 26.4375H14.7641L16.9125 28.5875C17.0046 28.6733 17.0785 28.7768 17.1297 28.8918C17.181 29.0068 17.2085 29.131 17.2107 29.2568C17.213 29.3827 17.1898 29.5078 17.1427 29.6245C17.0955 29.7412 17.0253 29.8473 16.9363 29.9363C16.8473 30.0253 16.7412 30.0955 16.6245 30.1427C16.5078 30.1898 16.3827 30.213 16.2568 30.2107C16.131 30.2085 16.0068 30.181 15.8918 30.1297C15.7768 30.0785 15.6733 30.0046 15.5875 29.9125L11.8375 26.1625C11.6619 25.9867 11.5633 25.7484 11.5633 25.5C11.5633 25.2516 11.6619 25.0133 11.8375 24.8375L15.5875 21.0875C15.7652 20.9219 16.0003 20.8317 16.2432 20.836C16.486 20.8403 16.7178 20.9387 16.8895 21.1105C17.0613 21.2822 17.1597 21.514 17.164 21.7568C17.1683 21.9997 17.0781 22.2348 16.9125 22.4125L14.7641 24.5625H32.5C32.5829 24.5625 32.6624 24.5296 32.721 24.471C32.7796 24.4124 32.8125 24.3329 32.8125 24.25V8C32.8125 7.91712 32.7796 7.83763 32.721 7.77903C32.6624 7.72042 32.5829 7.6875 32.5 7.6875H15C14.9171 7.6875 14.8376 7.72042 14.779 7.77903C14.7204 7.83763 14.6875 7.91712 14.6875 8V9.25C14.6875 9.49864 14.5887 9.7371 14.4129 9.91291C14.2371 10.0887 13.9986 10.1875 13.75 10.1875C13.5014 10.1875 13.2629 10.0887 13.0871 9.91291C12.9113 9.7371 12.8125 9.49864 12.8125 9.25V8C12.8125 7.41984 13.043 6.86344 13.4532 6.4532C13.8634 6.04297 14.4198 5.8125 15 5.8125H32.5C33.0802 5.8125 33.6366 6.04297 34.0468 6.4532C34.457 6.86344 34.6875 7.41984 34.6875 8ZM26.25 30.8125C26.0014 30.8125 25.7629 30.9113 25.5871 31.0871C25.4113 31.2629 25.3125 31.5014 25.3125 31.75V33C25.3125 33.0829 25.2796 33.1624 25.221 33.221C25.1624 33.2796 25.0829 33.3125 25 33.3125H7.5C7.41712 33.3125 7.33763 33.2796 7.27903 33.221C7.22042 33.1624 7.1875 33.0829 7.1875 33V16.75C7.1875 16.6671 7.22042 16.5876 7.27903 16.529C7.33763 16.4704 7.41712 16.4375 7.5 16.4375H25.2359L23.0875 18.5875C22.9954 18.6733 22.9215 18.7768 22.8703 18.8918C22.819 19.0068 22.7915 19.131 22.7893 19.2568C22.787 19.3827 22.8102 19.5078 22.8573 19.6245C22.9045 19.7412 22.9747 19.8473 23.0637 19.9363C23.1527 20.0253 23.2588 20.0955 23.3755 20.1427C23.4922 20.1898 23.6173 20.213 23.7432 20.2107C23.869 20.2085 23.9932 20.181 24.1082 20.1297C24.2232 20.0785 24.3267 20.0046 24.4125 19.9125L28.1625 16.1625C28.3381 15.9867 28.4367 15.7484 28.4367 15.5C28.4367 15.2516 28.3381 15.0133 28.1625 14.8375L24.4125 11.0875C24.2348 10.9219 23.9997 10.8317 23.7568 10.836C23.514 10.8403 23.2822 10.9387 23.1105 11.1105C22.9387 11.2822 22.8403 11.514 22.836 11.7568C22.8317 11.9997 22.9219 12.2348 23.0875 12.4125L25.2359 14.5625H7.5C6.91984 14.5625 6.36344 14.793 5.9532 15.2032C5.54297 15.6134 5.3125 16.1698 5.3125 16.75V33C5.3125 33.5802 5.54297 34.1366 5.9532 34.5468C6.36344 34.957 6.91984 35.1875 7.5 35.1875H25C25.5802 35.1875 26.1366 34.957 26.5468 34.5468C26.957 34.1366 27.1875 33.5802 27.1875 33V31.75C27.1875 31.5014 27.0887 31.2629 26.9129 31.0871C26.7371 30.9113 26.4986 30.8125 26.25 30.8125Z" fill="#636363"/>
</svg>
